<?xml version="1.0" encoding="UTF-8" standalone="no"?>
<svg
   xmlns:dc="http://purl.org/dc/elements/1.1/"
   xmlns:cc="http://creativecommons.org/ns#"
   xmlns:rdf="http://www.w3.org/1999/02/22-rdf-syntax-ns#"
   xmlns:svg="http://www.w3.org/2000/svg"
   xmlns="http://www.w3.org/2000/svg"
   xmlns:sodipodi="http://sodipodi.sourceforge.net/DTD/sodipodi-0.dtd"
   xmlns:inkscape="http://www.inkscape.org/namespaces/inkscape"
   width="543"
   height="450"
   viewBox="0 0 543 450"
   version="1.1"
   id="svg16"
   sodipodi:docname="Logo2.svg"
   inkscape:version="0.92.5 (2060ec1f9f, 2020-04-08)">
  <metadata
     id="metadata20">
    <rdf:RDF>
      <cc:Work
         rdf:about="">
        <dc:format>image/svg+xml</dc:format>
        <dc:type
           rdf:resource="http://purl.org/dc/dcmitype/StillImage" />
        <dc:title>Artboard</dc:title>
      </cc:Work>
    </rdf:RDF>
  </metadata>
  <sodipodi:namedview
     pagecolor="#ffffff"
     bordercolor="#666666"
     borderopacity="1"
     objecttolerance="10"
     gridtolerance="10"
     guidetolerance="10"
     inkscape:pageopacity="0"
     inkscape:pageshadow="2"
     inkscape:window-width="1600"
     inkscape:window-height="815"
     id="namedview18"
     showgrid="false"
     inkscape:zoom="0.236"
     inkscape:cx="508.47458"
     inkscape:cy="500"
     inkscape:window-x="0"
     inkscape:window-y="0"
     inkscape:window-maximized="1"
     inkscape:current-layer="Artboard" />
  <!-- Generator: Sketch 53.2 (72643) - https://sketchapp.com -->
  <title
     id="title2">Artboard</title>
  <desc
     id="desc4">Created with Sketch.</desc>
  <defs
     id="defs11">
    <linearGradient
       x1="0.5"
       y1="0"
       x2="0.5"
       y2="0.99258339"
       id="linearGradient-1">
      <stop
         stop-color="#2AABEE"
         offset="0%"
         id="stop6" />
      <stop
         stop-color="#229ED9"
         offset="100%"
         id="stop8" />
    </linearGradient>
  </defs>
  <g
     id="Artboard"
     style="fill:none;fill-rule:evenodd;stroke:none;stroke-width:1"
     transform="translate(0,-550)">
    <path
       d="M 49.089145,745.19268 C 188.02468,687.66708 280.67013,649.7427 327.0255,631.4195 c 132.35399,-52.31643 159.85602,-61.40436 177.78146,-61.70444 3.94253,-0.066 12.75774,0.86255 18.46786,5.2658 4.82151,3.71801 6.1481,8.74052 6.78292,12.26561 0.63482,3.52508 1.42532,11.55532 0.79693,17.82991 -7.17231,71.61721 -38.20678,245.41327 -53.99536,325.62577 -6.68073,33.94091 -19.83531,45.32114 -32.57047,46.43487 -27.67645,2.4203 -48.69268,-17.38214 -75.49868,-34.08107 -41.94608,-26.13055 -65.64295,-42.3969 -106.35889,-67.89549 -47.05431,-29.46803 -16.55096,-45.66417 10.26516,-72.1332 7.0179,-6.92707 128.96096,-112.33486 131.32117,-121.89699 0.29518,-1.19592 0.56913,-5.65368 -2.21756,-8.00755 -2.78668,-2.35386 -6.8996,-1.54894 -9.86759,-0.90876 -4.20703,0.90741 -71.21645,42.99838 -201.02824,126.27291 -19.02039,12.41218 -36.24849,18.45982 -51.68426,18.1429 -17.0167,-0.34938 -49.750009,-9.14364 -74.083853,-16.66075 -29.84646,-9.22005 -53.567837,-14.09476 -51.502232,-29.75325 1.075892,-8.15591 12.894312,-16.49694 35.45528,-25.02309 z"
       id="Path-3"
       inkscape:connector-curvature="0"
       style="fill:#ffffff;stroke-width:0.92920715" />
  </g>
</svg>
